<?xml version="1.0" encoding="iso-8859-1"?>
<!-- Generator: Adobe Illustrator 19.0.0, SVG Export Plug-In . SVG Version: 6.00 Build 0)  -->
<svg version="1.1" id="Capa_1" xmlns="http://www.w3.org/2000/svg" xmlns:xlink="http://www.w3.org/1999/xlink" x="0px" y="0px"
	 viewBox="0 0 512.021 512.021" style="enable-background:new 0 0 512.021 512.021;" xml:space="preserve">
<g>
	<path style="fill:#FFC107;" d="M256,0.011c-141.385,0-256,114.615-256,256s114.615,256,256,256c2.453,0,4.864-0.171,7.275-0.32
		l3.819-0.235c5.891,0,10.667-4.776,10.667-10.667c0-5.891-4.776-10.667-10.667-10.667
		c-117.606-5.573-208.427-105.43-202.854-223.036C69.813,149.48,169.669,58.659,287.276,64.233
		c109.837,5.205,197.695,93.097,202.858,202.935c0.262,5.699,4.962,10.182,10.667,10.176l0,0c5.72,0.005,10.426-4.503,10.667-10.219
		l0.235-3.712c0.171-2.453,0.32-4.907,0.32-7.424C511.857,114.668,397.322,0.152,256,0.011z"/>
	<path style="fill:#FFC107;" d="M473.792,233.867c-4.462-0.424-8.694,2.061-10.496,6.165c-14.709,32.14-52.688,46.272-84.828,31.563
		s-46.272-52.688-31.563-84.828c8.539-18.659,25.507-32.092,45.628-36.121c5.775-1.164,9.513-6.789,8.349-12.564
		c-0.61-3.029-2.504-5.645-5.192-7.17c-89.937-50.97-204.164-19.381-255.134,70.556s-19.381,204.165,70.556,255.134
		s204.164,19.381,255.134-70.556c24.885-43.91,30.983-96.009,16.911-144.478C481.94,237.304,478.211,234.237,473.792,233.867z"/>
</g>
<g>
</g>
<g>
</g>
<g>
</g>
<g>
</g>
<g>
</g>
<g>
</g>
<g>
</g>
<g>
</g>
<g>
</g>
<g>
</g>
<g>
</g>
<g>
</g>
<g>
</g>
<g>
</g>
<g>
</g>
</svg>
